<?xml version="1.0" encoding="utf-8"?>
<!-- Generator: Adobe Illustrator 25.1.0, SVG Export Plug-In . SVG Version: 6.00 Build 0)  -->
<svg version="1.1" id="Layer_1" xmlns="http://www.w3.org/2000/svg" xmlns:xlink="http://www.w3.org/1999/xlink" x="0px" y="0px"
	 viewBox="0 0 65.5 64.7" style="enable-background:new 0 0 65.5 64.7;" xml:space="preserve">
<style type="text/css">
	.st0{fill:#5E152A;}
</style>
<path class="st0" d="M54.4,13c-0.3-0.4-0.7-0.5-1.3-0.1c-1.5,0.9-3,1.8-4.4,2.8c-0.8,0.5-1.6,1.2-2.4,1.4c-2.7,0.7-5.5,1.3-8.2,1.9
	c-0.4,0.1-0.6,0-0.8-0.3c-1.3-1.6-2.9-2.8-4.8-3.6c-0.2-0.1-0.4-0.2-0.6-0.3c0.4-0.7,0.7-1.4,1.1-2.1c0.3-0.6,0.5-1.3,0.5-2
	c0-1.5,0-3.1,0-4.6c0-0.3,0.1-0.7,0.3-0.9c0.9-1.3,1.8-2.5,2.7-3.7c0.3-0.4,0.4-0.9,0-1.3c-0.4-0.4-0.9-0.2-1.3,0.4
	c-1,1.4-2,2.7-3,4.1c-0.2,0.3-0.3,0.7-0.3,1c0,1.3-0.2,2.6,0,3.9c0.2,1.9-0.9,3.3-1.5,4.7c-1.1-0.1-2.1-0.1-3-0.2
	c-0.2,0-0.4-0.1-0.5-0.2c-0.4-0.5-0.7-1.1-1.2-1.7c0.3-0.4,0.6-0.8,0.9-1.2c0.2-0.3,0.3-0.7,0.1-1c-0.3-0.6-0.7-1.2-1.2-1.7
	c-0.3-0.4-0.7-0.5-1.1-0.1c-0.2,0.2-0.3,0.7-0.2,1c0.1,0.3,0.4,0.6,0.6,0.9c0.1,0.2,0.1,0.4,0,0.6c-0.3,0.3-0.6,0.7-0.9,0.8
	c-0.8,0-1.6-0.1-2.5-0.2c-0.2-0.4-0.4-1.1-1.2-0.8c-0.9,0.4-0.3,1.1-0.3,1.5c-0.5,0.7-1.1,1.3-1.4,1.9c-0.3,0.7-0.7,0.8-1.4,0.8
	l-0.6-1.3c-0.2-0.5-0.6-0.6-1-0.4c-0.5,0.2-0.6,0.6-0.4,1.1c0.3,0.6,0.5,1.2,0.9,1.8c0.2,0.4,0.5,0.6,1,0.5c0.4-0.1,0.7-0.1,1.1-0.2
	c0.2,0.6,0.4,1,0.5,1.5c0,0.1,0,0.3-0.1,0.5c-0.6,0.8-1.2,1.6-1.9,2.5c-0.7-0.2-1.4-0.4-2.1-0.5c-0.7-0.1-1.3-0.4-1.9-0.9
	c-1.2-1-2.4-2-3.6-2.9c-0.4-0.2-0.8-0.4-1.2-0.4c-1.7-0.1-3.3-0.2-4.9-0.3c-0.7,0-1.1,0.2-1.1,0.7c0,0.5,0.3,0.8,1,0.9
	c1.5,0.1,3,0.2,4.5,0.3c0.3,0,0.7,0.2,0.9,0.4c1.3,1,2.6,2.1,3.9,3.2c0.3,0.2,0.7,0.4,1.1,0.5c0.9,0.2,1.8,0.4,2.7,0.7
	c-0.8,2.3-1,4.6-0.6,6.9c0,0.2-0.1,0.5-0.3,0.6c-2.2,1.7-4.4,3.3-6.6,4.9c-0.1,0.1-0.3,0.2-0.5,0.3c-1.5,0.5-3,0.9-4.5,1.4
	c-1,0.3-2,0.6-3,1C0.3,37.5,0,37.9,0,38.3c0,0.2,0.4,0.5,0.6,0.6c0.2,0.1,0.5,0,0.8-0.1c1.7-0.5,3.4-1.1,5-1.6
	c1.1-0.4,2.1-0.8,3.1-1.3c0.8-0.5,1.5-1.1,2.3-1.7c1.3-1,2.7-2,4-3c0.1,0.1,0.1,0.1,0.2,0.2c1.7,3.6,3.4,7.3,5.1,10.9
	c0.1,0.3,0.1,0.6,0.1,0.9c-0.7,4.2-1.4,8.5-2.1,12.7c-0.1,0.3-0.2,0.7-0.4,0.9c-1.4,1.9-2.8,3.8-4.3,5.7c-0.3,0.4-0.6,0.7-0.8,1.1
	c-0.1,0.2-0.1,0.6,0,0.9c0.1,0.2,0.5,0.4,0.7,0.3c0.3-0.1,0.5-0.3,0.7-0.5c1.7-2.2,3.4-4.4,5-6.6c0.3-0.4,0.5-0.8,0.5-1.3
	c0.6-3.4,1.1-6.7,1.7-10.1c0-0.2,0.1-0.5,0.1-0.7c0.1,0,0.1,0,0.2,0c0.4,0.8,0.7,1.5,1.1,2.3c3.1,6.6,11.5,9.1,17.7,5.2
	c3.8-2.4,5.7-5.8,6-10.3c0.1-2-0.4-4-1.2-5.8l-0.9-2c0.3,0,0.5,0.1,0.7,0.3c2.9,1.7,5.9,3.5,8.8,5.2c0.4,0.2,1,0.4,1.4,0.4
	c2.7,0.2,5.4,0.3,8,0.5c0.2,0,0.4,0,0.5,0c0.5,0,0.8-0.3,0.8-0.7c0-0.5-0.2-0.8-0.7-0.8c-0.2,0-0.4,0-0.5,0
	c-2.6-0.1-5.2-0.3-7.8-0.4c-0.4,0-0.8-0.1-1.1-0.3c-3.6-2.1-7.2-4.3-10.8-6.4c-0.4-0.2-0.8-0.6-0.9-1c-1.6-3.2-3.1-6.5-4.6-9.8
	l-0.5-1.1c1.9-0.5,3.8-0.9,5.7-1.3c1.1-0.2,2.2-0.4,3.1-0.9c2.2-1.2,4.4-2.7,6.5-4C54.5,13.9,54.7,13.5,54.4,13z M33.5,21.1
	c-1.1,0.9-1.9,2-2.4,3.3c-0.4,1-0.8,2.1-1.3,3.1c-0.7,1.4-1.6,1.7-3,1.3c-0.8-0.2-1.6-0.5-2.3-0.9c-2.4-1-4.8-0.9-7.1,0.3
	c-0.1,0-0.2,0.1-0.2,0.1c0,0-0.1,0-0.1,0l0,0l0,0c-0.5-1.6-0.3-3.4,0.3-5.1c0-0.1,0-0.1,0.1-0.2c0-0.1,0.1-0.3,0.2-0.4
	c0.1-0.2,0.2-0.4,0.3-0.6c0.1-0.1,0.1-0.3,0.2-0.4c0.1-0.1,0.1-0.3,0.2-0.4c0.1-0.2,0.2-0.4,0.4-0.6c0.1-0.1,0.2-0.3,0.3-0.4
	c1.1-1.5,2.6-2.8,4.2-3.5c4.4-2,10.5-0.6,12.7,2.8C35,20.1,34.2,20.5,33.5,21.1z"/>
</svg>
