<?xml version="1.0" encoding="utf-8"?>
<!-- Generator: Adobe Illustrator 25.1.0, SVG Export Plug-In . SVG Version: 6.00 Build 0)  -->
<svg version="1.1" id="Layer_1" xmlns="http://www.w3.org/2000/svg" xmlns:xlink="http://www.w3.org/1999/xlink" x="0px" y="0px"
	 viewBox="0 0 40.2 64.7" style="enable-background:new 0 0 40.2 64.7;" xml:space="preserve">
<style type="text/css">
	.st0{fill:#F7B208;}
</style>
<path class="st0" d="M8.2,58.3c-5.9-7.3-8.7-15.7-8.2-25.1C0.9,18.5,8,7.6,20.8,0.4c0.2-0.1,0.4-0.2,0.7-0.3c0,0.1,0,0.1,0,0.1
	c-0.1,0.1-0.1,0.2-0.1,0.2c-2.1,2.7-2.8,5.8-2.4,9.2c0.4,3.2,1.9,6.1,3.9,8.6c1.8,2.2,3.8,4.2,5.7,6.2c3.3,3.7,6.4,7.6,8.7,12
	c1.9,3.7,3.2,7.5,2.9,11.6c-0.3,5.9-2.8,10.8-7.5,14.4c-1.3,1-2.7,1.6-4.2,2.1c0.2-0.2,0.4-0.3,0.6-0.4c2.9-1.9,4.5-4.5,4.5-8
	c0-2.4-0.8-4.5-1.9-6.6c-1.4-2.7-3.4-4.9-5.5-7.2c-1.8-2-3.6-4-5.3-6.1c-2-2.5-3.2-5.4-3.3-8.7c0-0.4,0-0.9,0-1.3
	c-0.2,0.3-0.4,0.6-0.5,0.9c-2,5.6-1.8,11.1,0.3,16.5c0.6,1.6,1.5,3.1,2.2,4.7c0.9,1.9,0.3,3.8-1.5,4.5c-1.5,0.6-3.1-0.2-3.4-1.8
	c-0.1-0.7,0-1.5,0-2.3c0-0.2,0-0.5,0-0.7c-0.1,0-0.1,0-0.2,0c-0.2,0.2-0.3,0.5-0.4,0.7c-1.4,3.2-2.1,6.5-1.6,10
	c0.2,1.8,0.9,3.4,2.1,4.8C12.1,62.3,10,60.5,8.2,58.3z"/>
</svg>
